<svg xmlns="http://www.w3.org/2000/svg" version="1.1" xmlns:xlink="http://www.w3.org/1999/xlink" xmlns:svgjs="http://svgjs.dev/svgjs" width="2000" height="333" viewBox="0 0 2000 333"><g transform="matrix(1,0,0,1,-1.2121212121212466,-1.0069499105796353)"><svg viewBox="0 0 396 66" data-background-color="#ffffff" preserveAspectRatio="xMidYMid meet" height="333" width="2000" xmlns="http://www.w3.org/2000/svg" xmlns:xlink="http://www.w3.org/1999/xlink"><g id="tight-bounds" transform="matrix(1,0,0,1,0.2400000000000091,0.19957565795272103)"><svg viewBox="0 0 395.52 65.60068546506417" height="65.60068546506417" width="395.52"><g><svg viewBox="0 0 490.83638163063824 81.40979744680851" height="65.60068546506417" width="395.52"><g transform="matrix(1,0,0,1,95.31638163063829,11.251281702127663)"><svg viewBox="0 0 395.52 58.907234042553185" height="58.907234042553185" width="395.52"><g id="textblocktransform"><svg viewBox="0 0 395.52 58.907234042553185" height="58.907234042553185" width="395.52" id="textblock"><g><svg viewBox="0 0 395.52 58.907234042553185" height="58.907234042553185" width="395.52"><g transform="matrix(1,0,0,1,0,0)"><svg width="395.52" viewBox="0 -50 293.74 43.75" height="58.907234042553185" data-palette-color="#111111"><path d="M37.5-6.25L6.25-6.25 6.25-12.5 0-12.5 0-18.75 12.5-18.75 12.5-12.5 31.25-12.5 31.25-25 6.25-25 6.25-31.25 0-31.25 0-43.75 6.25-43.75 6.25-50 37.5-50 37.5-43.75 43.75-43.75 43.75-37.5 31.25-37.5 31.25-43.75 12.5-43.75 12.5-31.25 37.5-31.25 37.5-25 43.75-25 43.75-12.5 37.5-12.5 37.5-6.25ZM93.75-6.25L56.25-6.25 56.25-12.5 50-12.5 50-37.5 62.5-37.5 62.5-12.5 81.25-12.5 81.25-37.5 93.75-37.5 93.75-6.25ZM106.25-6.25L100-6.25 100-37.5 137.5-37.5 137.5-31.25 143.75-31.25 143.75-6.25 131.25-6.25 131.25-31.25 125-31.25 125-6.25 112.5-6.25 112.5-31.25 106.25-31.25 106.25-6.25ZM156.24-6.25L149.99-6.25 149.99-37.5 187.49-37.5 187.49-31.25 193.74-31.25 193.74-6.25 181.24-6.25 181.24-31.25 174.99-31.25 174.99-6.25 162.49-6.25 162.49-31.25 156.24-31.25 156.24-6.25ZM212.49-6.25L199.99-6.25 199.99-37.5 206.24-37.5 206.24-43.75 212.49-43.75 212.49-50 231.24-50 231.24-43.75 237.49-43.75 237.49-37.5 243.74-37.5 243.74-6.25 231.24-6.25 231.24-18.75 212.49-18.75 212.49-6.25ZM212.49-37.5L212.49-25 231.24-25 231.24-37.5 224.99-37.5 224.99-43.75 218.74-43.75 218.74-37.5 212.49-37.5ZM293.74-6.25L256.24-6.25 256.24-12.5 268.74-12.5 268.74-43.75 256.24-43.75 256.24-50 293.74-50 293.74-43.75 281.24-43.75 281.24-12.5 293.74-12.5 293.74-6.25Z" opacity="1" transform="matrix(1,0,0,1,0,0)" fill="#111111" class="wordmark-text-0" data-fill-palette-color="primary" id="text-0"></path></svg></g></svg></g></svg></g></svg></g><g><svg viewBox="0 0 81.40979744680851 81.40979744680851" height="81.40979744680851" width="81.40979744680851"><g><svg></svg></g><g id="icon-0"><svg viewBox="0 0 81.40979744680851 81.40979744680851" height="81.40979744680851" width="81.40979744680851"><g><path transform="scale(0.8141,0.8141)" d="M30 100c-16.569 0-30-13.431-30-30v-40c0-16.569 13.431-30 30-30h40c16.569 0 30 13.431 30 30v40c0 16.569-13.431 30-30 30z" fill="#ee6e0c" fill-rule="nonzero" stroke="none" stroke-width="1" stroke-linecap="butt" stroke-linejoin="miter" stroke-miterlimit="10" stroke-dasharray="" stroke-dashoffset="0" font-family="none" font-weight="none" font-size="none" text-anchor="none" style="mix-blend-mode: normal" data-fill-palette-color="accent"></path></g><g transform="matrix(1,0,0,1,16.281959489361707,16.281959489361707)"><svg viewBox="0 0 48.8458784680851 48.8458784680851" height="48.8458784680851" width="48.8458784680851"><g><svg xmlns="http://www.w3.org/2000/svg" xmlns:xlink="http://www.w3.org/1999/xlink" version="1.1" x="0" y="0" viewBox="0 0 64 64" style="enable-background:new 0 0 64 64;" xml:space="preserve" height="48.8458784680851" width="48.8458784680851" class="icon-cg-0" data-fill-palette-color="quaternary" id="cg-0"><path d="M55.98 19.411C55.994 19.272 56 19.137 56 19c0-2.415-2-4.436-4-4.899 0-0.034 0-0.067 0-0.101 0-2.757-2.243-5-5-5-0.457 0-0.913 0.066-1.355 0.194C44.92 7.307 43.104 6 41 6c-0.817 0-1.624 0.21-2.348 0.602C37.718 5.585 36.412 5 35 5s-2.718 0.585-3.652 1.602C30.624 6.21 29.817 6 29 6c-2.104 0-3.92 1.307-4.645 3.194C23.913 9.066 23.456 9 23 9c-2.757 0-5 2.243-5 5 0 0.033 0 0.066 0.001 0.101C15.721 14.564 14 16.585 14 19c0 0.137 0.006 0.272 0.02 0.411C12.224 20.19 11 21.987 11 24c0 2.757 2.243 5 5 5h21v6.414l8 8V64h2V42.586l-8-8V29h14v35h2V28.899c2.279-0.465 4-2.484 4-4.899C59 21.987 57.776 20.19 55.98 19.411zM54 27H42.92c-0.488-3.386-3.401-6-6.92-6v2c2.414 0 4.434 1.721 4.899 4H22.184c0.414-1.162 1.514-2 2.816-2v-2c-2.414 0-4.434 1.721-4.899 4H16c-1.654 0-3-1.346-3-3 0-1.408 0.999-2.642 2.376-2.933l0.067-0.014C16.333 21.256 17 22.05 17 23h2c0-1.854-1.274-3.403-2.988-3.854C16.009 19.098 16 19.046 16 19c0-1.654 1.346-3 2.938-3.003L19 16v0c1.466 0 2.685 1.058 2.944 2.45C21.364 19.144 21 20.026 21 21h2c0-1.103 0.897-2 2-2v-2c-0.47 0-0.915 0.096-1.334 0.246-0.598-1.586-1.966-2.796-3.658-3.144C20.007 14.069 20 14.033 20 14c0-1.654 1.346-3 3-3 0.347 0 0.682 0.085 1.011 0.209C24.122 14.42 26.762 17 30 17v-2c-2.201 0-3.991-1.786-3.999-3.986l0.035-0.331C26.2 9.154 27.474 8 29 8c0.385 0 0.716 0.082 1.01 0.193C30.113 11.412 32.757 14 36 14v-2c-1.867 0-3.426-1.29-3.865-3.023l0.299-0.503C32.984 7.552 33.944 7 35 7s2.016 0.552 2.566 1.475L38.17 9.49l0.901-0.765C39.462 8.394 40.113 8 41 8c1.489 0 2.731 1.102 2.942 2.576C43.652 13.059 41.56 15 39 15v2c3.43 0 6.286-2.482 6.881-5.743C46.243 11.104 46.614 11 47 11c1.654 0 3 1.346 3 3 0 0.026-0.005 0.055-0.006 0.081-2.79 0.405-5.046 2.455-5.755 5.136C43.847 19.087 43.435 19 43 19v2c1.103 0 2 0.897 2 2h2c0-0.974-0.364-1.856-0.944-2.55 0.272-2.444 2.293-4.356 4.79-4.434l0.048-0.002C50.951 16.012 51.006 16.005 51 16c1.654 0 3 1.346 3 3 0 0.033-0.007 0.069-0.009 0.102C51.716 19.57 50 21.589 50 24h2c0-1.493 1.1-2.725 2.53-2.952l0.094 0.02C56.001 21.358 57 22.592 57 24 57 25.654 55.654 27 54 27z" fill="#5e1914" data-fill-palette-color="quaternary"></path><path d="M35 0C19.009 0 6 13.01 6 29v15h6v13h19v7h2v-7h2v-2h-2-2H14V42H8V29C8 14.112 20.112 2 35 2s27 12.112 27 27v35h2V29C64 13.01 50.991 0 35 0z" fill="#5e1914" data-fill-palette-color="quaternary"></path><path d="M32.441 18.213C29.887 18.902 28 21.232 28 24h2c0-2.206 1.794-4 4-4 0-1.103 0.897-2 2-2v-2C34.44 16 33.1 16.906 32.441 18.213z" fill="#5e1914" data-fill-palette-color="quaternary"></path><polygon points="10,6 12,6 12,4 14,4 14,2 12,2 12,0 10,0 10,2 8,2 8,4 10,4 " fill="#5e1914" data-fill-palette-color="quaternary"></polygon><polygon points="6,7 6,5 4,5 4,3 2,3 2,5 0,5 0,7 2,7 2,9 4,9 4,7 " fill="#5e1914" data-fill-palette-color="quaternary"></polygon><rect x="49" y="31" width="2" height="2" fill="#5e1914" data-fill-palette-color="quaternary"></rect><rect x="45" y="31" width="2" height="2" fill="#5e1914" data-fill-palette-color="quaternary"></rect><rect x="41" y="31" width="2" height="2" fill="#5e1914" data-fill-palette-color="quaternary"></rect><rect x="49" y="35" width="2" height="2" fill="#5e1914" data-fill-palette-color="quaternary"></rect><rect x="45" y="35" width="2" height="2" fill="#5e1914" data-fill-palette-color="quaternary"></rect><rect x="49" y="39" width="2" height="2" fill="#5e1914" data-fill-palette-color="quaternary"></rect></svg></g></svg></g></svg></g></svg></g></svg></g><defs></defs></svg><rect width="395.52" height="65.60068546506417" fill="none" stroke="none" visibility="hidden"></rect></g></svg></g></svg>